<svg width="14" height="13" viewBox="0 0 14 13" fill="none" xmlns="http://www.w3.org/2000/svg">
<path d="M7.18262 0.260742C3.73637 0.260742 0.932617 3.06449 0.932617 6.51074C0.932617 9.95699 3.73637 12.7607 7.18262 12.7607C10.6289 12.7607 13.4326 9.95699 13.4326 6.51074C13.4326 3.06449 10.6289 0.260742 7.18262 0.260742ZM7.18262 2.82324C7.34331 2.82324 7.5004 2.87089 7.63402 2.96017C7.76763 3.04945 7.87177 3.17635 7.93327 3.32481C7.99477 3.47328 8.01086 3.63664 7.97951 3.79425C7.94815 3.95186 7.87077 4.09664 7.75714 4.21027C7.64351 4.3239 7.49874 4.40128 7.34113 4.43263C7.18352 4.46398 7.02015 4.44789 6.87169 4.38639C6.72322 4.3249 6.59633 4.22076 6.50705 4.08714C6.41777 3.95353 6.37012 3.79644 6.37012 3.63574C6.37012 3.42025 6.45572 3.21359 6.60809 3.06122C6.76047 2.90884 6.96713 2.82324 7.18262 2.82324ZM8.68262 9.88574H5.93262C5.80001 9.88574 5.67283 9.83306 5.57906 9.7393C5.4853 9.64553 5.43262 9.51835 5.43262 9.38574C5.43262 9.25313 5.4853 9.12596 5.57906 9.03219C5.67283 8.93842 5.80001 8.88574 5.93262 8.88574H6.80762V6.13574H6.30762C6.17501 6.13574 6.04783 6.08306 5.95406 5.9893C5.8603 5.89553 5.80762 5.76835 5.80762 5.63574C5.80762 5.50313 5.8603 5.37596 5.95406 5.28219C6.04783 5.18842 6.17501 5.13574 6.30762 5.13574H7.30762C7.44023 5.13574 7.5674 5.18842 7.66117 5.28219C7.75494 5.37596 7.80762 5.50313 7.80762 5.63574V8.88574H8.68262C8.81523 8.88574 8.9424 8.93842 9.03617 9.03219C9.12994 9.12596 9.18262 9.25313 9.18262 9.38574C9.18262 9.51835 9.12994 9.64553 9.03617 9.7393C8.9424 9.83306 8.81523 9.88574 8.68262 9.88574Z" fill="#666666"/>
</svg>
