<svg width="26" height="25" viewBox="0 0 26 25" fill="none" xmlns="http://www.w3.org/2000/svg">
<path d="M18.3164 21.148H7.37891C7.11128 21.148 6.90129 21.2122 6.75834 21.3494C6.61501 21.487 6.54766 21.6898 6.54766 21.948C6.54766 22.2062 6.61501 22.409 6.75834 22.5466C6.90129 22.6838 7.11128 22.748 7.37891 22.748H18.3164C18.584 22.748 18.794 22.6838 18.937 22.5466C19.0803 22.409 19.1477 22.2062 19.1477 21.948C19.1477 21.6898 19.0803 21.487 18.937 21.3494C18.794 21.2122 18.584 21.148 18.3164 21.148Z" fill="black" stroke="black" stroke-width="0.1"/>
<path d="M12.8148 22.7357L12.8477 22.7644L12.8805 22.7357C15.7472 20.2343 17.8991 17.9185 19.3346 15.7884C20.77 13.6587 21.4914 11.7113 21.4914 9.948C21.4914 7.74603 20.5802 5.63468 18.959 4.0783C17.3378 2.52198 15.1395 1.648 12.8477 1.648C10.5558 1.648 8.35749 2.52198 6.73633 4.0783C5.1151 5.63468 4.20391 7.74603 4.20391 9.948C4.20391 11.7113 4.92534 13.6587 6.36069 15.7884C7.7962 17.9185 9.94808 20.2343 12.8148 22.7357ZM17.7849 5.2111C19.0939 6.46776 19.8289 8.17172 19.8289 9.948C19.8289 11.319 19.2573 12.9039 18.0927 14.6884C16.9339 16.464 15.1905 18.4334 12.8477 20.5812C10.5048 18.4334 8.76137 16.464 7.60261 14.6884C6.43799 12.9039 5.86641 11.319 5.86641 9.948C5.86641 8.17172 6.60141 6.46776 7.91044 5.2111C9.21953 3.95436 10.9955 3.248 12.8477 3.248C14.6998 3.248 16.4758 3.95436 17.7849 5.2111Z" fill="black" stroke="black" stroke-width="0.1"/>
<path d="M14.4703 11.5029C14.0403 11.9157 13.4566 12.148 12.8477 12.148C12.2387 12.148 11.655 11.9157 11.225 11.5029C10.7951 11.0902 10.5539 10.5308 10.5539 9.948C10.5539 9.3652 10.7951 8.80583 11.225 8.39308C11.655 7.98026 12.2387 7.748 12.8477 7.748C13.4566 7.748 14.0403 7.98026 14.4703 8.39308C14.9003 8.80583 15.1414 9.3652 15.1414 9.948C15.1414 10.5308 14.9003 11.0902 14.4703 11.5029ZM10.0509 12.6357C10.793 13.3481 11.799 13.748 12.8477 13.748C13.8963 13.748 14.9023 13.3481 15.6444 12.6357C16.3866 11.9233 16.8039 10.9565 16.8039 9.948C16.8039 8.9395 16.3866 7.97274 15.6444 7.26028C14.9023 6.54788 13.8963 6.148 12.8477 6.148C11.799 6.148 10.793 6.54788 10.0509 7.26028C9.30874 7.97274 8.89141 8.9395 8.89141 9.948C8.89141 10.9565 9.30874 11.9233 10.0509 12.6357Z" fill="black" stroke="black" stroke-width="0.1"/>
</svg>
