<svg width="24" height="25" viewBox="0 0 24 25" fill="none" xmlns="http://www.w3.org/2000/svg">
<path d="M3.37207 3.40259V8.40259H8.16374" stroke="black" stroke-width="2" stroke-linecap="round" stroke-linejoin="round"/>
<path d="M3.41999 13.4027C3.63226 15.4085 4.48441 17.2817 5.83957 18.7214C7.19473 20.1611 8.97427 21.0838 10.8924 21.3412C12.8105 21.5987 14.7559 21.1761 16.4161 20.1411C18.0764 19.1062 19.3551 17.5191 20.047 15.6346C20.7389 13.7502 20.8038 11.6778 20.2312 9.75025C19.6586 7.82271 18.4819 6.15189 16.8899 5.00612C15.2979 3.86035 13.3831 3.30613 11.453 3.43245C9.52282 3.55878 7.68938 4.35832 6.24707 5.70268L3.37207 8.40268" stroke="black" stroke-width="2" stroke-linecap="round" stroke-linejoin="round"/>
<path d="M11.9971 7.40259V12.4026L15.8304 14.4026" stroke="black" stroke-width="2" stroke-linecap="round" stroke-linejoin="round"/>
</svg>
