<svg width="22" height="23" viewBox="0 0 22 23" fill="none" xmlns="http://www.w3.org/2000/svg">
<path d="M8.73676 0.327637C8.62006 0.327637 8.50815 0.373994 8.42563 0.45651C8.34311 0.539026 8.29676 0.650941 8.29676 0.767637V1.64764C8.29676 1.76433 8.34311 1.87625 8.42563 1.95876C8.50815 2.04128 8.62006 2.08764 8.73676 2.08764H9.39676V3.25254C4.63684 3.80034 0.926758 7.85362 0.926758 12.7576C0.926758 18.0339 5.2205 22.3276 10.4968 22.3276C15.773 22.3276 20.0668 18.0339 20.0668 12.7576C20.0683 10.9517 19.5555 9.18272 18.5884 7.6576L19.5207 6.90278L19.9361 7.41582C19.9724 7.46075 20.0173 7.49808 20.068 7.52568C20.1188 7.55327 20.1745 7.5706 20.232 7.57667C20.2894 7.58274 20.3475 7.57743 20.403 7.56104C20.4584 7.54465 20.51 7.51751 20.5549 7.48116L21.2391 6.9272C21.3297 6.85371 21.3874 6.74727 21.3995 6.63127C21.4117 6.51526 21.3772 6.39919 21.3038 6.30856L19.0889 3.57264C19.0525 3.52771 19.0077 3.49038 18.9569 3.46278C18.9061 3.43518 18.8504 3.41785 18.793 3.41178C18.7355 3.40572 18.6774 3.41103 18.622 3.42742C18.5666 3.4438 18.5149 3.47095 18.47 3.5073L17.7858 4.06126C17.6952 4.13474 17.6375 4.24118 17.6254 4.35719C17.6133 4.47319 17.6477 4.58927 17.7211 4.6799L18.1367 5.19294L17.2083 5.94402C15.7262 4.48366 13.771 3.50334 11.5968 3.25298V2.08764H12.2568C12.3735 2.08764 12.4854 2.04128 12.5679 1.95876C12.6504 1.87625 12.6968 1.76433 12.6968 1.64764V0.767637C12.6968 0.650941 12.6504 0.539026 12.5679 0.45651C12.4854 0.373994 12.3735 0.327637 12.2568 0.327637H8.73676ZM10.4968 4.72764C14.9408 4.72764 18.5268 8.31364 18.5268 12.7576C18.5268 17.2016 14.9408 20.7876 10.4968 20.7876C6.05276 20.7876 2.46676 17.2016 2.46676 12.7576C2.46676 8.31364 6.05276 4.72764 10.4968 4.72764ZM10.4972 6.3651L10.4968 12.7576L15.6082 16.596C16.3212 15.6465 16.7557 14.5171 16.8628 13.3346C16.97 12.152 16.7457 10.9629 16.215 9.90072C15.6843 8.83853 14.8683 7.94513 13.8584 7.32069C12.8485 6.69624 11.6846 6.36542 10.4972 6.36532V6.3651Z" fill="black"/>
</svg>
