<svg width="25" height="21" viewBox="0 0 25 21" fill="none" xmlns="http://www.w3.org/2000/svg">
<path d="M14.3797 12.789L14.3798 12.789C14.4583 12.7369 14.5053 12.7158 14.5456 12.7132C14.5804 12.7109 14.6279 12.7219 14.7069 12.784C14.9974 13.0151 15.3073 13.1402 15.6312 13.1676C15.9544 13.1949 16.2852 13.1246 16.6178 12.975M14.3797 12.789L16.5768 12.8838M14.3797 12.789C12.6335 13.9424 10.8858 15.094 9.13653 16.2438C8.70052 16.5307 8.26484 16.8184 7.82907 17.1062C6.60421 17.915 5.37859 18.7243 4.14262 19.519C3.33751 20.0373 2.46202 20.0573 1.62307 19.5947C0.824991 19.1563 0.414482 18.4604 0.402243 17.5679C0.383713 17.2593 0.439722 16.9508 0.565676 16.667C0.82601 15.9977 1.39564 15.6319 1.95371 15.2918C5.2647 13.2685 8.57968 11.2472 11.8986 9.22792L11.8997 9.22727C11.9981 9.16916 12.0462 9.12255 12.0685 9.07577C12.0896 9.03177 12.0961 8.96988 12.067 8.86082C11.9718 8.50594 11.986 8.17721 12.1007 7.8801C12.2151 7.58382 12.4265 7.32612 12.7143 7.10736L12.7148 7.10701C12.8021 7.04142 12.8171 7.0035 12.8191 6.98337C12.8214 6.95963 12.8106 6.91969 12.7519 6.83847L12.7516 6.83865L12.7475 6.83187C12.7171 6.78195 12.6722 6.74102 12.6178 6.71435C12.5634 6.6877 12.502 6.67657 12.4409 6.6825C12.2243 6.7045 12.0054 6.69216 11.7929 6.64597L11.7929 6.64608L11.7884 6.64486C11.3724 6.53365 11.0327 6.34341 10.7813 6.0737C10.5296 5.80365 10.3714 5.45929 10.3103 5.04858L10.3102 5.04817C10.1981 4.27315 10.5175 3.633 11.1847 3.20291L11.1848 3.20287C12.5433 2.32851 13.9083 1.46307 15.2798 0.606537C15.642 0.375481 16.0732 0.268034 16.5052 0.300785C16.9371 0.333522 17.3457 0.504533 17.6664 0.78736C17.998 1.06787 18.221 1.45 18.2976 1.87075C18.3743 2.29189 18.2996 2.72555 18.0862 3.09955L18.0865 3.09973L18.0817 3.10668C18.0471 3.15694 18.03 3.21601 18.0321 3.27563C18.0343 3.33526 18.0558 3.39311 18.094 3.44101L18.0943 3.44083L18.0985 3.44706C19.4907 5.48713 20.8782 7.53046 22.2612 9.57706C22.316 9.65787 22.3659 9.70775 22.4213 9.7378C22.4757 9.76732 22.5451 9.78293 22.6478 9.77739C23.5814 9.72712 24.3521 10.2135 24.6457 11.0429C24.9397 11.8734 24.6253 12.7506 23.8468 13.263M14.3797 12.789L23.8468 13.263M16.6178 12.975L16.5768 12.8838M16.6178 12.975C16.6178 12.975 16.6177 12.975 16.6176 12.9751L16.5768 12.8838M16.6178 12.975C16.6533 12.9591 16.6874 12.9358 16.713 12.9182L16.7178 12.9149C16.7477 12.8945 16.7688 12.8806 16.788 12.8723C16.8054 12.8648 16.812 12.8661 16.8142 12.8666C16.8166 12.8672 16.8307 12.8714 16.8544 12.9021L16.8545 12.9022C16.8681 12.9198 16.8812 12.9364 16.8937 12.9521C16.9425 13.0136 16.9815 13.0628 17.0045 13.118C17.0279 13.1742 17.0332 13.2356 16.981 13.3235M16.5768 12.8838C16.6039 12.8717 16.6312 12.853 16.6588 12.8341C16.7452 12.775 16.8351 12.7135 16.9336 12.841C16.9449 12.8556 16.9564 12.8701 16.968 12.8847C17.0794 13.0246 17.1916 13.1657 17.0664 13.3755M16.981 13.3235C16.9811 13.3232 16.9813 13.3229 16.9815 13.3227L17.0664 13.3755M16.981 13.3235C16.9808 13.3237 16.9807 13.324 16.9805 13.3242L17.0664 13.3755M16.981 13.3235C16.7405 13.7103 16.6595 14.1709 16.7547 14.6134M17.0664 13.3755C16.8391 13.7407 16.7627 14.1752 16.8525 14.5924M16.8525 14.5924L16.7546 14.613C16.7546 14.6131 16.7547 14.6133 16.7547 14.6134M16.8525 14.5924C17.1097 15.8146 18.4843 16.4533 19.6053 15.8217M16.8525 14.5924L16.7547 14.6134M16.7547 14.6134C17.0261 15.9015 18.4747 16.5735 19.6544 15.9088M19.6053 15.8217L19.6544 15.9088C19.6544 15.9088 19.6544 15.9088 19.6544 15.9088M19.6053 15.8217L19.6544 15.9088M19.6053 15.8217L23.8468 13.263M19.6544 15.9088C20.2517 15.5726 20.8284 15.1995 21.402 14.8283C21.6412 14.6735 21.8799 14.5191 22.1194 14.3678L22.1194 14.3678C22.2154 14.307 22.3116 14.2462 22.4077 14.1855C22.889 13.8815 23.3711 13.5769 23.8468 13.263M23.8468 13.263L23.7918 13.1795L23.8467 13.2631C23.8468 13.263 23.8468 13.263 23.8468 13.263ZM13.9032 5.922L13.9559 6.00699C13.843 6.07702 13.8182 6.12151 13.8138 6.14907C13.8087 6.18044 13.8217 6.23285 13.8936 6.33858C15.2243 8.28428 16.5474 10.2338 17.8628 12.1873C17.9373 12.2974 17.9853 12.3377 18.0252 12.3488C18.0599 12.3584 18.1182 12.3531 18.2368 12.2754L18.2371 12.2752C19.1837 11.6601 20.1384 11.0603 21.0965 10.4686C21.203 10.401 21.23 10.3613 21.2358 10.3363C21.2411 10.3133 21.2358 10.2681 21.1648 10.1645L21.1646 10.1642C19.8266 8.19787 18.4891 6.23092 17.1523 4.26337L17.1521 4.26299C17.1404 4.24567 17.1287 4.22683 17.1182 4.20988C17.1142 4.20341 17.1104 4.19722 17.1068 4.19149C17.0927 4.16913 17.08 4.15003 17.0664 4.13319C17.0494 4.11195 17.0318 4.09526 17.0108 4.083C17.0016 4.0883 16.9926 4.09345 16.9838 4.09851C16.934 4.12709 16.8894 4.1527 16.8436 4.18336L16.8436 4.18338L16.8414 4.18476C16.5697 4.35686 16.2982 4.52963 16.0266 4.70247C15.3388 5.14015 14.6502 5.57829 13.9558 6.00709L13.9032 5.922ZM13.9032 5.922C13.6691 6.0672 13.6663 6.18213 13.8111 6.39503L16.7879 4.10028C16.5158 4.27263 16.2441 4.44555 15.9723 4.61848C15.2847 5.05602 14.5971 5.49358 13.9032 5.922ZM2.85494 18.6753V18.6757C2.21895 18.6757 1.7875 18.3265 1.67028 17.7906C1.61408 17.5319 1.63888 17.3005 1.74034 17.094C1.84241 16.8863 2.02615 16.6955 2.30146 16.527L2.30152 16.527C3.5337 15.7716 4.76772 15.0187 6.00359 14.2681L6.00379 14.2679C8.20046 12.9269 10.3956 11.5844 12.5892 10.2405L12.5892 10.2404C12.6972 10.1742 12.7488 10.167 12.7784 10.1737C12.8076 10.1804 12.8486 10.2084 12.9135 10.3095C12.9136 10.3096 12.9137 10.3097 12.9137 10.3098L12.9979 10.2558C13.2597 10.6716 13.5363 11.0805 13.8276 11.4825L2.85494 18.6753ZM2.85494 18.6753L2.86314 18.676C3.08996 18.6947 3.33499 18.5985 3.58638 18.429L3.58726 18.4285C6.94914 16.2139 10.3135 14.002 13.6803 11.7928L2.85494 18.6753ZM23.5604 11.4549L23.4652 11.4856C23.3845 11.2356 23.2183 11.0776 23.0173 11.0163C22.8149 10.9545 22.5638 10.9869 22.3098 11.1459L22.3098 11.1459C21.4342 11.6936 20.5625 12.2471 19.69 12.8011C19.534 12.9001 19.378 12.9992 19.2219 13.0983L19.2217 13.0984C19.1481 13.1449 19.0745 13.1907 19.0013 13.2364C18.7459 13.3956 18.494 13.5526 18.2546 13.7271L18.2547 13.7272L18.2517 13.7292C18.1274 13.8132 18.0375 13.9354 17.9962 14.0749C17.9549 14.2143 17.9645 14.3632 18.0235 14.4967L18.0236 14.4967L18.0248 14.4997C18.0849 14.6489 18.1714 14.7549 18.2846 14.8249C18.3987 14.8954 18.548 14.9342 18.7415 14.9342L18.7417 14.9342C18.8842 14.9345 19.0229 14.8919 19.1386 14.8127L19.1386 14.8127L19.1414 14.8109C19.6331 14.4982 20.1252 14.1866 20.6172 13.8751C21.4424 13.3525 22.2674 12.8301 23.0897 12.3034C23.2801 12.1813 23.3964 12.0509 23.4543 11.918C23.5114 11.787 23.5159 11.6438 23.4651 11.4854L23.5604 11.4549ZM23.5604 11.4549C23.6747 11.8112 23.5465 12.1292 23.1437 12.3876L19.1683 13.0138C19.3244 12.9148 19.4804 12.8157 19.6365 12.7166C20.5089 12.1627 21.3808 11.609 22.2568 11.0612C22.8044 10.7182 23.3806 10.8981 23.5604 11.4549ZM11.5583 4.6867L11.556 4.76315L11.5531 4.76385C11.5726 5.05839 11.7185 5.27255 11.9137 5.38574C12.1264 5.50908 12.4081 5.51868 12.6742 5.36586C13.0026 5.17612 13.3207 4.97052 13.6417 4.76303C13.7781 4.67488 13.915 4.5864 14.0535 4.49864L14.0535 4.49859C14.8985 3.96416 15.7432 3.42973 16.5876 2.8953C16.8124 2.75078 16.9944 2.61978 17.0402 2.39158C17.0707 2.23916 17.07 2.10173 17.0322 1.98182C16.9949 1.86358 16.9194 1.75538 16.7876 1.66287L16.7876 1.66291L16.7851 1.66107C16.6687 1.57381 16.526 1.52445 16.3778 1.52065C16.2296 1.51685 16.0844 1.55883 15.9632 1.64005L15.9632 1.64016L15.9588 1.64283C15.6159 1.84759 15.2793 2.06206 14.9415 2.27734C14.8384 2.34301 14.7352 2.40877 14.6317 2.47434C13.7496 3.03561 12.866 3.59539 11.9809 4.15368L11.98 4.15424C11.7136 4.31837 11.5632 4.5187 11.5583 4.6867ZM15.7488 11.9379L15.7491 11.9392C15.8543 11.9338 15.9304 11.9296 15.9911 11.9135C16.0466 11.8988 16.0807 11.8763 16.106 11.8362C16.1172 11.8185 16.118 11.8079 16.1177 11.8017C16.1173 11.7939 16.1143 11.7823 16.1039 11.7644C16.0932 11.746 16.0782 11.7266 16.0581 11.7021C16.0556 11.6991 16.0531 11.696 16.0505 11.6928C16.0335 11.6722 16.0131 11.6474 15.9962 11.6223C15.2231 10.4817 14.4485 9.3413 13.6724 8.20122C13.59 8.08213 13.537 8.06034 13.5122 8.0602C13.4888 8.06007 13.4371 8.0796 13.3568 8.20006L13.3568 8.20009L13.3549 8.20283C13.2973 8.28317 13.2668 8.37814 13.2668 8.4751C13.2668 8.57205 13.2973 8.66702 13.3549 8.74736L13.3549 8.74734L13.3564 8.74951C14.0293 9.74294 14.7037 10.7343 15.3797 11.7236C15.488 11.8808 15.6325 11.9488 15.7488 11.9379Z" fill="black" stroke="black" stroke-width="0.2"/>
</svg>
