<svg width="15" height="15" viewBox="0 0 15 15" fill="none" xmlns="http://www.w3.org/2000/svg">
<path fill-rule="evenodd" clip-rule="evenodd" d="M6.16359 0.935689C6.16371 0.802989 6.12234 0.673573 6.04527 0.565551C5.96819 0.457529 5.85927 0.376307 5.73375 0.333252C5.60823 0.290196 5.47239 0.287462 5.34524 0.325431C5.21809 0.3634 5.10599 0.440173 5.02463 0.545006L0.570586 6.27163C0.483698 6.38333 0.436523 6.52081 0.436523 6.66232C0.436523 6.80383 0.483698 6.9413 0.570586 7.053L5.02463 12.7796C5.10599 12.8845 5.21809 12.9612 5.34524 12.9992C5.47239 13.0372 5.60823 13.0344 5.73375 12.9914C5.85927 12.9483 5.96819 12.8671 6.04527 12.7591C6.12234 12.6511 6.16371 12.5216 6.16359 12.3889V9.85014C9.58621 9.92141 11.2304 10.5711 12.0563 11.2773C12.8415 11.9486 12.9853 12.7383 13.1348 13.5655L13.1736 13.7786C13.2022 13.9311 13.2855 14.068 13.4079 14.1634C13.5303 14.2588 13.6833 14.3062 13.8382 14.2966C13.993 14.2871 14.1391 14.2213 14.2489 14.1116C14.3586 14.0019 14.4245 13.8559 14.4341 13.701C14.5429 11.9525 14.3794 9.41874 13.1444 7.29925C11.9456 5.24211 9.78664 3.66029 6.16359 3.49486V0.935689Z" fill="white"/>
</svg>
